Coordinates
version=1
nRows=4
nColumns=138
inDegrees=yes

Units are S.I. units (second, meters, Newtons, ...)
If the header above contains a line with 'inDegrees', this indicates whether rotational values are in degrees (yes) or radians (no).

endheader
time	pelvis_tilt	pelvis_list	pelvis_rotation	pelvis_tx	pelvis_ty	pelvis_tz	L5_S1_FE	L5_S1_LB	L5_S1_AR	L4_L5_FE	L4_L5_LB	L4_L5_AR	T12_L1_FE	T12_L1_LB	T12_L1_AR	T11_T12_FE	T11_T12_LB	T11_T12_AR	T10_T11_FE	T10_T11_LB	T10_T11_AR	T9_T10_FE	T9_T10_LB	T9_T10_AR	T8_T9_FE	T8_T9_LB	T8_T9_AR	T1_T2_FE	T1_T2_LB	T1_T2_AR	T1_head_neck_FE	T1_head_neck_LB	T1_head_neck_AR	hip_flexion_r	hip_adduction_r	hip_rotation_r	knee_angle_r	knee_angle_y_r	knee_angle_x_r	ankle_angle_r	subtalar_angle_r	mtp_angle_r	hip_flexion_l	hip_adduction_l	hip_rotation_l	knee_angle_l	knee_angle_y_l	knee_angle_x_l	ankle_angle_l	subtalar_angle_l	mtp_angle_l	skull_z	skull_y	skull_x	sternoclavicular_r2	sternoclavicular_r3	unrotscap_r3	unrotscap_r2	acromioclavicular_r2	acromioclavicular_r3	acromioclavicular_r1	unrothum_r1	unrothum_r3	unrothum_r2	elv_angle	shoulder_elv	shoulder1_r2	shoulder_rot	elbow_flexion	elbow_x	elbow_y	pro_sup	deviation	flexion	thumb_abd	thumb_flex	TCP2M_lateral	TCP2M_flex	TCP2M2_flex	MCP2_lateral	MCP2_flex	PIP_flex	DIP_flex	MCP2M_lateral	MCP2M_flex	MPIP_flex	MDIP_flex	RCP2M_lateral	RCP2M_flex	RPIP_flex	RDIP_flex	LCP2M_lateral	LCP2M_flex	LPIP_flex	LDIP_flex	sternoclavicular_r2_l	sternoclavicular_r3_l	unrotscap_r3_l	unrotscap_r2_l	acromioclavicular_r2_l	acromioclavicular_r3_l	acromioclavicular_r1_l	unrothum_r1_l	unrothum_r3_l	unrothum_r2_l	elv_angle_l	shoulder_elv_l	shoulder1_r2_l	shoulder_rot_l	elbow_flexion_l	elbow_x_l	elbow_y_l	pro_sup_l	deviation_l	flexion_l	thumb_l_abd	thumb_l_flex	TCP2M_l_lateral	TCP2M_l_flex	TCP2M2_l_flex	MCP2_l_lateral	MCP2_l_flex	PIP_l_flex	DIP_l_flex	MCP2M_l_lateral	MCP2M_l_flex	MPIP_l_flex	MDIP_l_flex	RCP2M_l_lateral	RCP2M_l_flex	RPIP_l_flex	RDIP_l_flex	LCP2M_l_lateral	LCP2M_l_flex	LPIP_l_flex	LDIP_l_flex	ribs_bending
      2.95000000	     -6.16534814	     92.66048501	    -89.88621787	      0.32047337	     -0.12751412	      0.88244733	     -7.72844593	     -2.85843290	     -1.13126643	     -4.29721799	     -2.01708198	     -0.32468188	     -1.86751729	     -0.30732929	      0.07169635	     -0.80766902	     -0.07078369	      0.06563153	      0.83119244	     -0.00757192	     -0.13429367	      0.68034650	      0.12133908	      0.18128868	      2.47668037	      0.18714259	      0.14767097	     -1.34344720	     -0.24528214	      0.75048470	    -40.64184817	     -0.78524095	     -0.90822006	     25.14702792	     -0.55750865	    -12.45486123	    -41.45455577	      2.27694725	      2.57045820	     20.33373809	     -0.99126354	     -7.29310858	     24.70824958	     -4.18641669	    -12.38108151	    -43.31756237	      2.90212201	      3.28519854	     22.20742559	     -3.22178426	     -7.41023805	    -11.16684265	     -1.71967230	      0.50435993	    -16.26016731	     -9.70515296	     -6.05568818	     14.29736303	     10.87541630	     23.39576703	     10.51623626	    -10.51623626	    -23.39576703	      2.89492518	    -14.03929228	     59.07988012	     14.03929228	    -32.32272724	     25.52317210	      2.34446016	      0.00000000	     -1.40329063	     -4.51581451	    -20.61983332	     -7.89193681	     12.90505487	      0.81986080	    -14.79443266	      4.25045432	      3.84911872	     26.86479857	     28.55038898	      6.49022552	      3.66650858	     17.31138628	     42.56351885	     10.95505522	     13.07955743	     17.19507380	     48.69863769	     16.07016900	     -6.10346256	      2.15418000	     47.94805918	     14.38024355	    -18.76149627	     -7.50023892	     -5.75730402	     13.59288377	      8.98657165	     22.24297874	      9.99806586	     -9.99806586	    -22.24297874	      2.75228246	    -18.12245596	     56.16881532	    -28.42091943	      0.30374669	     20.54724756	      1.71228024	      0.00000000	     -7.56753199	     -4.87349634	    -23.00667482	    -10.01002669	     10.22979054	      2.88061228	    -12.04701031	      9.36555995	      5.18618422	     27.90490307	     30.73722692	     18.69728539	      6.15231323	     21.31638067	     37.57935095	     22.37168661	     18.84749660	     17.70091797	     53.46118536	     12.81966112	     -7.22898843	     -2.43635106	     52.07782355	     19.48434435	      2.31945405
      2.95830000	     -6.07193209	     92.37383557	    -89.88097427	      0.32045593	     -0.12572665	      0.88090388	     -7.97991437	     -2.86713595	     -1.18111457	     -4.42479673	     -2.02734273	     -0.40463050	     -1.95555717	     -0.37171159	      0.04112075	     -0.90252335	     -0.10207843	      0.06061453	      0.78966339	     -0.00259853	     -0.10454864	      0.57592739	      0.12457365	      0.18861650	      2.47076285	      0.20182257	      0.17139660	     -1.21400865	     -0.06956131	      0.76708592	    -40.60968582	     -0.82845467	     -0.95203684	     25.31654388	     -0.26975115	    -12.17102076	    -42.22446990	      2.17820221	      2.25733165	     21.02834617	     -1.26214537	     -7.23609785	     25.16233557	     -4.26941958	    -12.24224559	    -44.70129282	      2.94246739	      3.23071774	     22.75900851	     -3.01819102	     -7.37578797	    -11.14425328	     -1.78607699	      0.57655010	    -16.04365959	     -9.91291714	     -5.92392687	     13.98627711	     11.63446547	     22.88671555	     10.28742113	    -10.28742113	    -22.88671555	      2.83193661	    -14.37266196	     57.79440398	     14.37266196	    -31.42624885	     25.19044133	      2.63233551	      0.00000000	     -1.03906208	     -4.60170657	    -20.34269338	     -7.79679584	     12.92604376	      0.86573033	    -14.85688050	      4.22587866	      3.86625824	     26.99062126	     28.59942029	      6.50868367	      3.65082500	     17.39194404	     42.59826593	     10.96311323	     13.07736531	     17.27470135	     48.74947101	     16.09545597	     -6.15661877	      2.18056217	     48.00069470	     14.42267137	    -18.81659451	     -7.82148452	     -5.63132339	     13.29544595	      9.62589119	     21.75626059	      9.77928940	     -9.77928940	    -21.75626059	      2.69205735	    -17.95233115	     54.93973615	    -28.19327896	      0.47793437	     20.22488406	      1.99372606	      0.00000000	     -7.61210824	     -4.95623512	    -22.99914839	     -9.97052663	     10.18089350	      2.90451797	    -12.06078900	      9.38442574	      5.20146416	     27.97182802	     30.77552335	     18.71460455	      6.13227511	     21.37979919	     37.60650880	     22.37317257	     18.84690925	     17.79306531	     53.50761487	     12.85220241	     -7.27369278	     -2.35332660	     52.15298968	     19.53086729	      2.31945405
      2.96670000	     -6.01533963	     92.05982778	    -89.86204438	      0.32048690	     -0.12437090	      0.88003007	     -8.20464380	     -2.91034118	     -1.21121693	     -4.67799454	     -2.05991319	     -0.42991990	     -2.04592047	     -0.39139298	      0.03217162	     -0.95224582	     -0.11065093	      0.05395082	      0.81350987	     -0.00057131	     -0.10689495	      0.55791686	      0.13219157	      0.17052823	      2.53607035	      0.22179846	      0.15871987	     -1.25236272	      0.10733591	      0.78701033	    -40.72482272	     -0.87594240	     -0.95932206	     25.36342001	     -0.03825197	    -11.91931482	    -42.85424719	      2.14385024	      1.95714063	     21.30437725	     -1.49844244	     -7.21396645	     25.40963813	     -4.26741331	    -12.05501847	    -45.78980745	      3.04783316	      3.16104302	     23.15945491	     -2.96656643	     -7.35485593	    -11.26740447	     -1.81769759	      0.59332360	    -15.84759322	    -10.26824034	     -5.81645362	     13.73253485	     12.32657955	     22.47149948	     10.10078436	    -10.10078436	    -22.47149948	      2.78055897	    -14.74619051	     56.74588457	     14.74619051	    -30.60638991	     24.88659929	      3.03618367	      0.00000000	     -0.55510298	     -4.86359075	    -20.27089052	     -7.64763965	     13.02355714	      0.93698526	    -14.87711202	      4.22108767	      3.86551284	     27.08618338	     28.63573519	      6.52114567	      3.63244788	     17.43151647	     42.62387257	     10.97094025	     13.05966991	     17.29714537	     48.77889480	     16.10887639	     -6.20062782	      2.16186768	     48.01662219	     14.43856118	    -18.78181322	     -8.33793120	     -5.52415420	     13.04242156	     10.13366008	     21.34221923	      9.59318066	     -9.59318066	    -21.34221923	      2.64082506	    -17.80715219	     53.89418316	    -27.96874771	      0.66812109	     19.87431408	      2.26620593	      0.00000000	     -7.59134501	     -5.15413917	    -23.00757719	     -9.93515734	     10.17294796	      2.92441627	    -12.06577296	      9.39323728	      5.20077120	     28.01928460	     30.80456715	     18.72659827	      6.11177057	     21.42763453	     37.63695639	     22.38212870	     18.83856819	     17.84761632	     53.54251602	     12.86843063	     -7.30828463	     -2.30834287	     52.19949975	     19.55454922	      2.31945405
      2.97500000	     -6.89519553	     91.77846776	    -89.02769071	      0.32050003	     -0.12330935	      0.87920085	     -8.67428567	     -2.85551271	     -1.13500630	     -4.26141042	     -2.23594964	     -0.36554986	     -2.22306955	     -0.49221457	      0.18703652	     -1.10145037	     -0.24660180	      0.26412942	      0.64018550	      0.01008113	     -0.11626012	      0.48050287	      0.21123756	      0.22609506	      2.47572484	      0.60930499	     -0.02488885	     -1.10295862	      0.00128917	      0.52791701	    -40.70350929	     -0.72868636	     -1.03224386	     25.49538629	      0.10923692	    -11.63571137	    -43.61135458	      2.52918334	      1.71811340	     21.65127627	     -1.99416402	     -7.21496974	     25.41787869	     -4.25102882	    -12.31823052	    -46.48497669	      3.33903284	      2.94468922	     23.76367584	     -2.91923875	     -7.38629655	    -11.38817705	     -1.66053611	      0.71152690	    -15.97883337	    -10.09679560	     -5.62116439	     13.27146074	     13.75048731	     21.71701193	      9.76164740	     -9.76164740	    -21.71701193	      2.68720084	    -14.74465619	     54.84062393	     14.74465619	    -29.30549037	     24.11027100	      2.72451215	      0.00000000	     -0.52263933	     -4.93620310	    -19.94899668	     -7.75540027	     12.80667735	      0.87415739	    -14.99771642	      4.16715097	      3.76183942	     27.26191862	     28.68068974	      6.53639510	      3.48596675	     17.62316879	     42.70404475	     10.98128388	     12.95733587	     17.52184631	     48.92053831	     16.16349103	     -6.41723496	      2.34405234	     48.24554049	     14.56393165	    -18.65983800	     -7.87436136	     -5.34501915	     12.61948715	     11.65821209	     20.65014231	      9.28209685	     -9.28209685	    -20.65014231	      2.55518945	    -17.45970779	     52.14652423	    -27.15631421	      0.59766851	     19.07112026	      1.97078220	      0.00000000	     -8.51935440	     -5.18682803	    -22.96198929	     -9.84769415	     10.07266481	      3.02087181	    -12.08075156	      9.43847442	      5.15017442	     28.20858240	     30.93155227	     18.78238262	      6.01189356	     21.62160717	     37.73739038	     22.39897271	     18.77591039	     18.07662667	     53.64766408	     12.92000825	     -7.51590609	     -2.06439270	     52.42335378	     19.66681521	      2.31945405
